<?xml version="1.0" standalone="no"?>
<!DOCTYPE svg PUBLIC "-//W3C//DTD SVG 20010904//EN"
 "http://www.w3.org/TR/2001/REC-SVG-20010904/DTD/svg10.dtd">
<svg version="1.0" xmlns="http://www.w3.org/2000/svg"
 width="820.000000pt" height="861.000000pt" viewBox="0 0 820.000000 861.000000"
 preserveAspectRatio="xMidYMid meet">

<g transform="translate(0.000000,861.000000) scale(0.100000,-0.100000)"
fill="#000000" stroke="none">
<path d="M6495 8199 c-566 -49 -1068 -453 -1244 -1001 -41 -130 -62 -295 -65
-520 l-2 -186 -29 -39 c-16 -21 -771 -782 -1679 -1690 l-1650 -1653 -105 0
c-58 0 -185 -5 -283 -10 -168 -8 -182 -10 -298 -49 -432 -145 -760 -440 -927
-834 -69 -162 -112 -379 -113 -557 0 -246 81 -556 162 -614 18 -13 45 -20 76
-20 67 -1 100 25 432 349 413 402 466 440 610 440 76 0 93 -3 152 -33 77 -38
128 -91 167 -172 21 -46 26 -69 26 -140 0 -130 -4 -136 -400 -545 -424 -438
-430 -447 -386 -537 51 -105 213 -159 524 -177 281 -16 466 11 663 96 189 82
339 188 489 344 185 194 306 412 366 665 25 104 42 359 33 494 l-6 105 103
115 c57 63 297 311 533 550 407 411 2318 2323 2588 2588 l125 124 289 8 c268
8 295 10 377 35 638 189 1076 758 1077 1400 0 253 -81 560 -163 620 -21 14
-44 20 -86 20 -52 0 -63 -4 -114 -43 -31 -23 -168 -151 -304 -285 -269 -262
-441 -419 -488 -445 -21 -12 -56 -17 -120 -17 -78 0 -97 4 -145 27 -71 35
-143 107 -178 178 -23 47 -27 67 -27 140 1 133 3 135 370 515 437 453 451 471
425 550 -29 87 -90 124 -285 171 -85 20 -322 47 -374 43 -9 -1 -61 -6 -116
-10z m80 -551 c-388 -397 -433 -477 -423 -750 6 -144 26 -215 93 -323 96 -155
257 -269 430 -306 82 -17 235 -15 318 5 143 34 206 81 517 380 129 124 240
226 247 226 18 0 17 -168 -2 -290 -41 -269 -129 -444 -320 -636 -107 -107
-191 -169 -306 -223 -226 -108 -448 -133 -762 -86 l-109 17 -72 -69 c-122
-115 -2863 -2858 -3203 -3205 -249 -254 -322 -334 -327 -359 -3 -17 0 -71 8
-118 33 -199 28 -404 -15 -561 -25 -92 -93 -239 -154 -329 -145 -219 -382
-388 -640 -456 -84 -23 -128 -28 -275 -32 l-175 -5 156 159 c317 323 387 404
438 507 41 85 53 143 53 271 1 194 -50 329 -177 463 -86 91 -172 151 -265 183
-58 20 -85 23 -235 23 -151 0 -177 -2 -230 -22 -95 -35 -186 -105 -370 -282
-280 -271 -322 -310 -335 -310 -19 0 -6 259 19 380 86 425 458 788 879 856
132 21 369 21 497 -1 l100 -17 1565 1569 c1478 1482 1957 1970 2014 2052 l25
36 -9 165 c-21 371 -7 469 95 676 138 282 363 483 649 579 114 38 217 53 375
54 l143 1 -217 -222z"/>
<path d="M5214 5504 c-21 -15 -77 -58 -124 -97 -104 -87 -2076 -2056 -2185
-2182 -153 -176 -165 -217 -89 -284 48 -42 95 -58 139 -47 13 3 52 30 87 58
111 93 574 547 1324 1300 1011 1015 1044 1050 1044 1122 0 46 -12 70 -58 119
-44 46 -82 49 -138 11z"/>
</g>
</svg>
